<svg xmlns="http://www.w3.org/2000/svg" width="1804" height="2432" viewBox="0 0 1804 2432">
  <path d="M 1610 73 L 1588 62 L 1531 60 L 1516 72 L 1497 76 L 1437 141 L 1436 156 L 1420 175 L 1420 192 L 1396 231 L 1400 260 L 1360 372 L 1304 459 L 1306 468 L 1280 519 L 1276 556 L 1268 567 L 1268 580 L 1255 594 L 1243 584 L 1223 519 L 1166 401 L 1144 374 L 1130 345 L 1098 301 L 1060 258 L 1043 225 L 988 180 L 943 176 L 927 168 L 910 187 L 885 197 L 852 220 L 829 225 L 758 275 L 741 281 L 712 322 L 676 357 L 659 390 L 641 409 L 616 459 L 580 575 L 580 608 L 569 629 L 560 634 L 552 626 L 547 608 L 543 563 L 494 449 L 440 362 L 434 345 L 407 318 L 387 285 L 363 260 L 359 244 L 363 207 L 355 184 L 359 164 L 355 135 L 359 127 L 343 85 L 324 76 L 311 76 L 268 104 L 233 113 L 193 165 L 192 188 L 196 196 L 188 219 L 188 240 L 180 255 L 180 268 L 164 295 L 164 316 L 144 351 L 140 376 L 124 403 L 120 428 L 92 479 L 92 500 L 80 523 L 72 576 L 64 599 L 64 640 L 60 647 L 66 700 L 72 711 L 76 740 L 97 782 L 145 843 L 166 855 L 189 878 L 226 896 L 240 911 L 223 954 L 180 995 L 180 1016 L 167 1042 L 154 1056 L 156 1072 L 138 1123 L 136 1152 L 140 1160 L 136 1184 L 148 1211 L 148 1228 L 140 1252 L 167 1281 L 168 1292 L 176 1303 L 172 1319 L 176 1344 L 224 1402 L 288 1463 L 282 1472 L 285 1479 L 299 1487 L 324 1491 L 335 1499 L 344 1497 L 383 1507 L 432 1499 L 494 1470 L 516 1447 L 545 1470 L 587 1491 L 647 1511 L 731 1523 L 796 1523 L 803 1527 L 816 1523 L 826 1532 L 814 1556 L 774 1583 L 701 1621 L 682 1639 L 649 1653 L 618 1692 L 586 1715 L 569 1709 L 564 1715 L 569 1729 L 538 1759 L 523 1760 L 515 1766 L 515 1786 L 502 1799 L 489 1801 L 472 1827 L 471 1842 L 445 1865 L 404 1951 L 360 2079 L 360 2100 L 350 2131 L 361 2134 L 366 2143 L 357 2153 L 346 2156 L 350 2164 L 346 2175 L 356 2200 L 347 2222 L 336 2235 L 337 2253 L 331 2258 L 318 2255 L 308 2275 L 310 2292 L 327 2285 L 336 2300 L 324 2312 L 308 2302 L 300 2315 L 300 2340 L 310 2360 L 343 2345 L 355 2349 L 375 2339 L 392 2343 L 430 2310 L 439 2284 L 451 2200 L 441 2184 L 451 2172 L 460 2133 L 482 2110 L 484 2093 L 507 2068 L 503 2051 L 523 1999 L 564 1913 L 587 1881 L 621 1843 L 657 1816 L 762 1762 L 775 1751 L 815 1739 L 832 1755 L 828 1780 L 840 1835 L 840 1900 L 850 1947 L 848 1984 L 844 1991 L 846 2052 L 852 2075 L 848 2103 L 852 2123 L 852 2172 L 848 2180 L 852 2192 L 848 2200 L 860 2247 L 858 2255 L 864 2263 L 864 2280 L 873 2302 L 888 2319 L 888 2336 L 899 2351 L 912 2351 L 933 2366 L 948 2369 L 978 2358 L 991 2347 L 1014 2350 L 1019 2344 L 1019 2307 L 991 2192 L 991 2107 L 987 2100 L 979 1980 L 983 1971 L 973 1908 L 975 1891 L 963 1864 L 963 1851 L 974 1838 L 979 1820 L 975 1804 L 975 1731 L 987 1719 L 1000 1719 L 1066 1756 L 1121 1803 L 1138 1811 L 1169 1847 L 1196 1865 L 1231 1909 L 1249 1950 L 1275 1985 L 1277 1998 L 1312 2047 L 1320 2075 L 1316 2092 L 1332 2111 L 1328 2132 L 1340 2159 L 1344 2184 L 1352 2195 L 1348 2204 L 1356 2256 L 1373 2318 L 1379 2323 L 1396 2319 L 1411 2327 L 1419 2323 L 1444 2323 L 1506 2270 L 1499 2223 L 1487 2188 L 1483 2151 L 1471 2124 L 1471 2103 L 1445 2051 L 1431 2056 L 1417 2043 L 1421 2032 L 1413 2020 L 1423 2003 L 1415 1985 L 1403 1976 L 1388 1986 L 1368 1970 L 1371 1939 L 1344 1914 L 1343 1887 L 1316 1858 L 1303 1832 L 1303 1819 L 1315 1804 L 1310 1789 L 1278 1777 L 1283 1758 L 1263 1746 L 1255 1723 L 1246 1712 L 1213 1692 L 1173 1655 L 1158 1653 L 1150 1637 L 1124 1624 L 1095 1624 L 1084 1616 L 1075 1620 L 1025 1587 L 1000 1566 L 991 1539 L 1000 1501 L 1027 1483 L 1042 1488 L 1056 1501 L 1084 1499 L 1091 1503 L 1131 1495 L 1148 1497 L 1163 1491 L 1171 1495 L 1179 1491 L 1187 1495 L 1195 1491 L 1223 1495 L 1236 1491 L 1273 1526 L 1327 1551 L 1363 1543 L 1371 1547 L 1400 1547 L 1423 1535 L 1448 1539 L 1467 1531 L 1484 1531 L 1553 1480 L 1579 1470 L 1592 1441 L 1634 1394 L 1663 1332 L 1679 1215 L 1667 1132 L 1667 1091 L 1659 1068 L 1655 1023 L 1647 1012 L 1647 971 L 1680 917 L 1698 898 L 1711 864 L 1711 847 L 1731 780 L 1731 759 L 1739 728 L 1743 607 L 1739 600 L 1731 511 L 1711 435 L 1659 315 L 1640 290 L 1615 232 L 1615 219 L 1635 188 L 1631 159 L 1639 140 L 1643 107 L 1630 89 Z M 1452 2165 L 1462 2172 L 1455 2182 L 1445 2175 Z M 1455 2125 L 1464 2136 L 1451 2148 L 1441 2136 Z M 492 1825 L 502 1832 L 495 1842 L 485 1835 Z M 1182 1171 L 1188 1179 L 1188 1208 L 1176 1243 L 1176 1268 L 1152 1287 L 1148 1307 L 1152 1332 L 1144 1346 L 1120 1364 L 1100 1362 L 1092 1368 L 1072 1370 L 1052 1364 L 1006 1369 L 995 1356 L 983 1304 L 983 1275 L 995 1253 L 1007 1243 L 1015 1247 L 1064 1247 L 1114 1219 L 1150 1190 L 1169 1168 Z M 662 1166 L 674 1168 L 692 1185 L 696 1208 L 709 1238 L 729 1254 L 768 1261 L 804 1255 L 823 1247 L 836 1259 L 840 1368 L 824 1384 L 800 1376 L 771 1380 L 743 1376 L 732 1368 L 711 1368 L 700 1360 L 643 1360 L 619 1342 L 613 1332 L 615 1311 L 627 1292 L 639 1252 L 639 1199 Z M 1492 1063 L 1507 1077 L 1536 1143 L 1536 1184 L 1544 1204 L 1540 1211 L 1540 1260 L 1532 1300 L 1516 1334 L 1484 1365 L 1472 1386 L 1450 1408 L 1436 1416 L 1399 1416 L 1373 1400 L 1327 1352 L 1327 1343 L 1315 1324 L 1303 1276 L 1307 1227 L 1320 1193 L 1349 1163 L 1410 1119 L 1453 1080 L 1475 1067 Z M 375 991 L 412 995 L 436 1003 L 480 1037 L 520 1111 L 532 1179 L 532 1204 L 520 1238 L 496 1252 L 479 1248 L 468 1259 L 472 1280 L 480 1291 L 476 1302 L 450 1323 L 420 1336 L 387 1336 L 380 1340 L 372 1336 L 343 1336 L 297 1312 L 279 1292 L 255 1220 L 255 1163 L 272 1113 L 359 1001 Z M 1114 916 L 1108 976 L 1092 1023 L 1091 1038 L 1066 1071 L 1004 1100 L 988 1096 L 972 1100 L 964 1096 L 935 1098 L 920 1092 L 903 1096 L 892 1088 L 879 1088 L 856 1076 L 815 1076 L 797 1068 L 785 1051 L 770 1053 L 752 1034 L 739 1008 L 723 924 L 724 917 L 735 907 L 752 907 L 791 919 L 892 919 L 931 907 L 1004 907 L 1011 903 L 1032 907 L 1060 903 L 1075 895 L 1102 904 Z M 1287 757 L 1331 825 L 1338 847 L 1351 861 L 1365 894 L 1396 921 L 1400 932 L 1374 960 L 1329 989 L 1318 991 L 1301 1013 L 1289 1013 L 1248 1050 L 1241 1039 L 1267 948 L 1267 923 L 1275 888 L 1275 851 L 1279 844 L 1275 767 Z M 556 697 L 565 702 L 568 715 L 560 731 L 568 755 L 568 936 L 559 946 L 547 938 L 491 872 L 535 784 L 543 739 L 551 728 L 547 720 L 549 704 Z M 1531 447 L 1542 451 L 1560 469 L 1576 499 L 1596 563 L 1600 596 L 1608 611 L 1604 619 L 1608 635 L 1608 672 L 1604 679 L 1608 700 L 1588 760 L 1576 772 L 1569 771 L 1552 756 L 1539 760 L 1506 737 L 1485 732 L 1448 686 L 1443 664 L 1443 623 L 1451 588 L 1451 563 L 1468 525 L 1491 502 L 1520 457 Z M 292 421 L 340 431 L 360 449 L 404 523 L 420 571 L 420 648 L 412 700 L 392 756 L 375 786 L 364 796 L 327 792 L 264 752 L 233 747 L 208 722 L 199 700 L 199 683 L 191 668 L 191 643 L 203 608 L 203 587 L 215 568 L 223 531 L 231 516 L 227 504 L 231 479 Z M 970 400 L 991 425 L 1025 482 L 1047 505 L 1065 546 L 1080 567 L 1108 631 L 1124 683 L 1125 733 L 1116 740 L 1099 734 L 1035 736 L 1008 744 L 947 744 L 940 748 L 927 744 L 908 752 L 879 744 L 840 766 L 812 748 L 779 744 L 757 731 L 748 722 L 735 687 L 739 663 L 747 648 L 743 627 L 755 591 L 775 552 L 776 537 L 815 489 L 857 448 L 880 443 L 907 423 L 926 422 L 959 395 Z" fill="#000000" fill-rule="evenodd"/>
</svg>
